<?xml version="1.0" encoding="UTF-8" standalone="no"?>
<!-- Created with Inkscape (http://www.inkscape.org/) -->

<svg
   width="512"
   height="512"
   viewBox="0 0 135.46666 135.46667"
   version="1.1"
   id="svg1"
   inkscape:version="1.3.2 (091e20e, 2023-11-25, custom)"
   sodipodi:docname="Audio disc.svg"
   xmlns:inkscape="http://www.inkscape.org/namespaces/inkscape"
   xmlns:sodipodi="http://sodipodi.sourceforge.net/DTD/sodipodi-0.dtd"
   xmlns="http://www.w3.org/2000/svg"
   xmlns:svg="http://www.w3.org/2000/svg">
  <sodipodi:namedview
     id="namedview1"
     pagecolor="#ffffff"
     bordercolor="#000000"
     borderopacity="0.25"
     inkscape:showpageshadow="2"
     inkscape:pageopacity="0.0"
     inkscape:pagecheckerboard="0"
     inkscape:deskcolor="#d1d1d1"
     inkscape:document-units="mm"
     inkscape:zoom="1"
     inkscape:cx="247.5"
     inkscape:cy="280.5"
     inkscape:window-width="1920"
     inkscape:window-height="1017"
     inkscape:window-x="-8"
     inkscape:window-y="-8"
     inkscape:window-maximized="1"
     inkscape:current-layer="layer2" />
  <defs
     id="defs1" />
  <g
     inkscape:label="Layer 1"
     inkscape:groupmode="layer"
     id="layer1">
    <path
       fill="#8899a6"
       d="m 131.23333,67.733328 c 0,35.069642 -28.43036,63.500002 -63.499999,63.500002 -35.069639,0 -63.4999977,-28.43036 -63.4999977,-63.500002 0,-35.069633 28.4303587,-63.4999947 63.4999977,-63.4999947 35.069639,0 63.499999,28.4303617 63.499999,63.4999947 z M 67.733331,57.149994 c -5.845533,0 -10.583333,4.737806 -10.583333,10.583334 0,5.845538 4.7378,10.583334 10.583333,10.583334 5.845532,0 10.583338,-4.737796 10.583338,-10.583334 0,-5.845528 -4.737806,-10.583334 -10.583338,-10.583334 z"
       id="path1"
       style="stroke-width:3.52777" />
    <path
       fill="#ccd6dd"
       d="m 51.110438,65.884775 c 0.4304,-3.894675 2.109613,-7.411856 4.737814,-10.040053 l -28.0282,-28.02467 C 18.986493,36.65361 13.088053,48.404638 11.64872,61.499741 Z m 33.249309,3.697116 c -0.430406,3.894665 -2.109619,7.411856 -4.737806,10.040053 l 28.024669,28.024666 c 8.83355,-8.833564 14.732,-20.584582 16.17133,-33.679694 z"
       id="path2"
       style="stroke-width:3.52777" />
    <path
       fill="#f5f8fa"
       d="m 69.592465,84.356225 4.413251,39.451135 c 13.077478,-1.44639 24.81439,-7.34131 33.640894,-16.16429 L 79.621941,79.618409 c -2.628197,2.624672 -6.141863,4.303894 -10.029476,4.737816 z M 65.983558,51.099866 61.824305,11.602867 c -13.22564,1.375826 -25.096612,7.313079 -34.004253,16.220719 l 28.024667,28.024661 c 2.652893,-2.649356 6.205359,-4.335637 10.138839,-4.748381 z"
       id="path3"
       style="stroke-width:3.52777" />
  </g>
  <g
     inkscape:groupmode="layer"
     id="layer2"
     inkscape:label="Layer 2">
    <path
       fill="#5dadec"
       d="m 131.67571,61.818732 -47.451445,5.475883 c -2.08488,0.241602 -3.790961,2.154817 -3.790961,4.254513 v 39.755602 c -1.92616,-0.78561 -4.07456,-1.23825 -6.35,-1.23825 -8.180877,0 -14.816637,5.68324 -14.816637,12.70009 0,7.0147 6.63576,12.7001 14.816637,12.7001 8.180961,0 14.816721,-5.6854 14.816721,-12.7001 V 83.690424 L 127.00003,79.29407 v 27.77942 c -1.92616,-0.7872 -4.07464,-1.24041 -6.35,-1.24041 -8.18096,0 -14.81672,5.68333 -14.81672,12.7001 0,7.0147 6.63576,12.7001 14.81672,12.7001 8.18088,0 14.81664,-5.6854 14.81664,-12.7001 V 65.199079 c 0,-2.099697 -1.706,-3.619468 -3.79096,-3.380347 z"
       id="path1-3"
       style="stroke-width:2.11667;fill:#404040;fill-opacity:0.75" />
  </g>
  <g
     inkscape:groupmode="layer"
     id="g4"
     inkscape:label="Layer 2 복사"
     style="display:inline">
    <path
       fill="#5dadec"
       d="m 127.44237,57.585398 -47.45144,5.475883 c -2.08488,0.241602 -3.790961,2.154817 -3.790961,4.254513 v 39.755596 c -1.92616,-0.78561 -4.07456,-1.23825 -6.35,-1.23825 -8.180876,0 -14.816636,5.68324 -14.816636,12.70009 0,7.0147 6.63576,12.7001 14.816636,12.7001 8.180961,0 14.816721,-5.6854 14.816721,-12.7001 V 79.45709 l 38.1,-4.396354 v 27.779414 c -1.92616,-0.7872 -4.07464,-1.24041 -6.35,-1.24041 -8.18096,0 -14.81672,5.68333 -14.81672,12.7001 0,7.0147 6.63576,12.7001 14.81672,12.7001 8.18088,0 14.81664,-5.6854 14.81664,-12.7001 V 60.965745 c 0,-2.099697 -1.706,-3.619468 -3.79096,-3.380347 z"
       id="path4"
       style="stroke-width:2.11667" />
  </g>
</svg>
